HIERARCHY
ROOT Hips
{
  OFFSET 5.72205e-005 65.662 3.42586
  CHANNELS 6 Xposition Yposition Zposition Zrotation Xrotation Yrotation
  JOINT Chest
  {
    OFFSET 0 8.7983 -4.7612
    CHANNELS 3 Zrotation Xrotation Yrotation
    JOINT Chest2
    {
      OFFSET 0 8.0291 0.4195
      CHANNELS 3 Zrotation Xrotation Yrotation
      JOINT Chest3
      {
        OFFSET 0 9.9351 -2.2114
        CHANNELS 3 Zrotation Xrotation Yrotation
        JOINT Neck
        {
          OFFSET 0 22.3885 -0.4656
          CHANNELS 3 Zrotation Xrotation Yrotation
          JOINT Head
          {
            OFFSET -0.0001 12.643 3.4389
            CHANNELS 3 Zrotation Xrotation Yrotation
            End Site
            {
              OFFSET 0.0001 17.6655 0.5274
            }
          }
        }
        JOINT LeftCollar
        {
          OFFSET 2.2603 21.606 7.4023
          CHANNELS 3 Zrotation Xrotation Yrotation
          JOINT LeftShoulder
          {
            OFFSET 13.5163 -1.1332 -5.0146
            CHANNELS 3 Zrotation Xrotation Yrotation
            JOINT LeftElbow
            {
              OFFSET -0.0995 -28.05 -0.2431
              CHANNELS 3 Zrotation Xrotation Yrotation
              JOINT LeftWrist
              {
                OFFSET 0.0679 -23.3996 -0.1402
                CHANNELS 3 Zrotation Xrotation Yrotation
                JOINT LeftFinger1
                {
                  OFFSET 0.7932 -9.069 2.5189
                  CHANNELS 3 Zrotation Xrotation Yrotation
                  JOINT LeftFinger11
                  {
                    OFFSET -0.8272 -3.3923 0.5977
                    CHANNELS 3 Zrotation Xrotation Yrotation
                    JOINT LeftFinger12
                    {
                      OFFSET -0.5649 -2.3158 0.4082
                      CHANNELS 3 Zrotation Xrotation Yrotation
                      End Site
                      {
                        OFFSET -0.4919 -1.6479 0.2673
                      }
                    }
                  }
                }
                JOINT LeftFinger2
                {
                  OFFSET 0.9159 -9.2044 0.2193
                  CHANNELS 3 Zrotation Xrotation Yrotation
                  JOINT LeftFinger21
                  {
                    OFFSET 0.0117 -4.1944 -0.0248
                    CHANNELS 3 Zrotation Xrotation Yrotation
                    JOINT LeftFinger22
                    {
                      OFFSET 0.0071 -2.3249 -0.0142
                      CHANNELS 3 Zrotation Xrotation Yrotation
                      End Site
                      {
                        OFFSET -0.1475 -2.0882 0.0028
                      }
                    }
                  }
                }
                JOINT LeftFinger3
                {
                  OFFSET 0.6113 -8.7231 -2.0637
                  CHANNELS 3 Zrotation Xrotation Yrotation
                  JOINT LeftFinger31
                  {
                    OFFSET -0.1927 -3.8059 -0.2383
                    CHANNELS 3 Zrotation Xrotation Yrotation
                    JOINT LeftFinger32
                    {
                      OFFSET -0.1091 -2.1688 -0.1362
                      CHANNELS 3 Zrotation Xrotation Yrotation
                      End Site
                      {
                        OFFSET -0.2358 -1.9176 -0.0906
                      }
                    }
                  }
                }
                JOINT LeftFinger4
                {
                  OFFSET -0.6151 -8.0947 -3.5641
                  CHANNELS 3 Zrotation Xrotation Yrotation
                  JOINT LeftFinger41
                  {
                    OFFSET -0.4882 -2.341 -0.6462
                    CHANNELS 3 Zrotation Xrotation Yrotation
                    JOINT LeftFinger42
                    {
                      OFFSET -0.3575 -1.7167 -0.4742
                      CHANNELS 3 Zrotation Xrotation Yrotation
                      End Site
                      {
                        OFFSET -0.4187 -1.5237 -0.3496
                      }
                    }
                  }
                }
                JOINT LeftFinger0
                {
                  OFFSET -1.42 -1.8761 1.4223
                  CHANNELS 3 Zrotation Xrotation Yrotation
                  JOINT LeftFinger01
                  {
                    OFFSET -1.1471 -3.4929 2.6334
                    CHANNELS 3 Zrotation Xrotation Yrotation
                    JOINT LeftFinger02
                    {
                      OFFSET -0.823 -2.3 1.6571
                      CHANNELS 3 Zrotation Xrotation Yrotation
                      End Site
                      {
                        OFFSET -0.5822 -1.6914 1.1582
                      }
                    }
                  }
                }
              }
            }
          }
        }
        JOINT RightCollar
        {
          OFFSET -2.2603 21.606 7.4023
          CHANNELS 3 Zrotation Xrotation Yrotation
          JOINT RightShoulder
          {
            OFFSET -13.5187 -1.1334 -5.0155
            CHANNELS 3 Zrotation Xrotation Yrotation
            JOINT RightElbow
            {
              OFFSET 0.0994 -28.0499 -0.2431
              CHANNELS 3 Zrotation Xrotation Yrotation
              JOINT RightWrist
              {
                OFFSET -0.0679 -23.3996 -0.1402
                CHANNELS 3 Zrotation Xrotation Yrotation
                JOINT RightFinger1
                {
                  OFFSET -0.7932 -9.0691 2.5189
                  CHANNELS 3 Zrotation Xrotation Yrotation
                  JOINT RightFinger11
                  {
                    OFFSET 0.8272 -3.3923 0.5977
                    CHANNELS 3 Zrotation Xrotation Yrotation
                    JOINT RightFinger12
                    {
                      OFFSET 0.565 -2.3158 0.4082
                      CHANNELS 3 Zrotation Xrotation Yrotation
                      End Site
                      {
                        OFFSET 0.4919 -1.6479 0.2673
                      }
                    }
                  }
                }
                JOINT RightFinger2
                {
                  OFFSET -0.916 -9.2044 0.2193
                  CHANNELS 3 Zrotation Xrotation Yrotation
                  JOINT RightFinger21
                  {
                    OFFSET -0.0117 -4.1944 -0.0248
                    CHANNELS 3 Zrotation Xrotation Yrotation
                    JOINT RightFinger22
                    {
                      OFFSET -0.0071 -2.3249 -0.0142
                      CHANNELS 3 Zrotation Xrotation Yrotation
                      End Site
                      {
                        OFFSET 0.1475 -2.0882 0.0028
                      }
                    }
                  }
                }
                JOINT RightFinger3
                {
                  OFFSET -0.6113 -8.7231 -2.0637
                  CHANNELS 3 Zrotation Xrotation Yrotation
                  JOINT RightFinger31
                  {
                    OFFSET 0.1927 -3.8059 -0.2383
                    CHANNELS 3 Zrotation Xrotation Yrotation
                    JOINT RightFinger32
                    {
                      OFFSET 0.1091 -2.1688 -0.1362
                      CHANNELS 3 Zrotation Xrotation Yrotation
                      End Site
                      {
                        OFFSET 0.2358 -1.9176 -0.0906
                      }
                    }
                  }
                }
                JOINT RightFinger4
                {
                  OFFSET 0.6151 -8.0947 -3.564
                  CHANNELS 3 Zrotation Xrotation Yrotation
                  JOINT RightFinger41
                  {
                    OFFSET 0.4882 -2.341 -0.6462
                    CHANNELS 3 Zrotation Xrotation Yrotation
                    JOINT RightFinger42
                    {
                      OFFSET 0.3574 -1.7166 -0.4742
                      CHANNELS 3 Zrotation Xrotation Yrotation
                      End Site
                      {
                        OFFSET 0.4187 -1.5237 -0.3496
                      }
                    }
                  }
                }
                JOINT RightFinger0
                {
                  OFFSET 1.4199 -1.8761 1.4221
                  CHANNELS 3 Zrotation Xrotation Yrotation
                  JOINT RightFinger01
                  {
                    OFFSET 1.1472 -3.4929 2.6336
                    CHANNELS 3 Zrotation Xrotation Yrotation
                    JOINT RightFinger02
                    {
                      OFFSET 0.8229 -2.3 1.6571
                      CHANNELS 3 Zrotation Xrotation Yrotation
                      End Site
                      {
                        OFFSET 0.5822 -1.6914 1.1582
                      }
                    }
                  }
                }
              }
            }
          }
        }
      }
    }
  }
  JOINT RightHip
  {
    OFFSET -9.412 3.9771 -0.7758
    CHANNELS 3 Zrotation Xrotation Yrotation
    JOINT RightKnee
    {
      OFFSET -0.7531 -40.938 0
      CHANNELS 3 Zrotation Xrotation Yrotation
      JOINT RightAnkle
      {
        OFFSET 0 -40.1986 0
        CHANNELS 3 Zrotation Xrotation Yrotation
        JOINT RightToe
        {
          OFFSET 0 -4.4182 9.239
          CHANNELS 3 Zrotation Xrotation Yrotation
          End Site
          {
            OFFSET 0 0 6.1981
          }
        }
      }
    }
  }
  JOINT LeftHip
  {
    OFFSET 9.4119 3.9773 -0.7758
    CHANNELS 3 Zrotation Xrotation Yrotation
    JOINT LeftKnee
    {
      OFFSET 0.7532 -40.9383 0
      CHANNELS 3 Zrotation Xrotation Yrotation
      JOINT LeftAnkle
      {
        OFFSET 0 -40.1986 0
        CHANNELS 3 Zrotation Xrotation Yrotation
        JOINT LeftToe
        {
          OFFSET 0 -4.4182 9.239
          CHANNELS 3 Zrotation Xrotation Yrotation
          End Site
          {
            OFFSET 0 0 6.1981
          }
        }
      }
    }
  }
}
MOTION
Frames:	4
Frame Time:	0.0333333
5.72205e-005 65.662 3.42586 0 0 -0 0 0 -0 0 0 -0 0 0 -0 0 0 -0 0 0 -0 0 0 -12.5014 88.1196 14.2451 10.6914 -0.00160068 -0.00239207 0.000740045 -8.4365e-005 7.00714e-005 -9.52055e-007 9.93923e-017 -1.98785e-016 -1.59028e-015 9.93923e-017 -5.96354e-016 -1.59028e-015 -9.93923e-017 -5.96354e-016 -1.59028e-015 9.93923e-017 -1.98785e-016 -1.59028e-015 -0.0128176 0.00232552 8.52707e-005 9.93923e-017 5.96354e-016 -0 9.93923e-017 -1.98785e-016 -1.59028e-015 -0.0160551 0.00299681 0.000857156 -2.48481e-016 0 3.18055e-015 9.93923e-017 -1.98785e-016 -1.59028e-015 -0.0125865 0.0031206 0.00282719 0 1.98785e-016 -0 9.93923e-017 -1.98785e-016 -1.59028e-015 9.93923e-017 -5.96354e-016 -1.59028e-015 -9.93923e-017 -5.96354e-016 -1.59028e-015 -0.865644 0.16582 7.03859 -88.0329 10.2057 -10.5567 0.0015593 -0.00248883 -0.000788628 7.87605e-005 4.10553e-005 1.24965e-005 -3.97569e-016 -7.95139e-016 3.18055e-015 -1.98785e-016 -3.97569e-016 3.18055e-015 -1.98785e-016 0 3.18055e-015 -3.97569e-016 -7.95139e-016 3.18055e-015 0.0129473 0.00231697 -8.70038e-005 9.93923e-017 -7.95139e-016 1.59028e-015 -3.97569e-016 -7.95139e-016 3.18055e-015 0.0163314 0.00303369 -0.000872333 3.97569e-016 7.95139e-016 -3.18055e-015 -3.97569e-016 -7.95139e-016 3.18055e-015 0.0145763 0.00367772 -0.00326275 9.93923e-017 -3.97569e-016 -0 -3.97569e-016 -7.95139e-016 3.18055e-015 -1.98785e-016 -3.97569e-016 3.18055e-015 -1.98785e-016 0 3.18055e-015 3.42482 1.32465 -0.0626183 0.000117508 0.717283 0.000978199 -3.4257 -2.04197 -0.0604716 6.47761e-025 0 -0 -3.42483 1.34017 0.0627307 -0.000193936 0.682302 -0.0013703 3.42574 -2.02253 0.0595886 -8.45714e-024 0 -7.40531e-025 
-0.0171228 23.2727 8.79455 -0 -35.4387 -0 0 6.52454 -0 0 13.0491 -0 0 13.0492 -0 0 2.77141e-006 -0 0.00157621 0.137287 -0.0867177 -2.28545e-008 2.64658e-006 -12.5014 45.0255 10.6831 19.1087 -5.05979e-005 -0.00145585 1.83927e-005 44.577 -6.74237 4.21379 -2.98177e-016 5.96354e-016 1.59028e-015 -2.98177e-016 3.97569e-016 1.59028e-015 -1.98785e-016 7.95139e-016 1.59028e-015 -2.98177e-016 5.96354e-016 1.59028e-015 -0.0128338 0.00232827 8.836e-005 -2.48481e-016 7.95139e-016 3.18055e-015 -2.98177e-016 5.96354e-016 1.59028e-015 -0.0160552 0.00299674 0.000858951 2.48481e-016 -3.97569e-016 -3.18055e-015 -2.98177e-016 5.96354e-016 1.59028e-015 -0.0126343 0.00313501 0.00284177 4.47266e-016 7.95139e-016 -1.59028e-015 -2.98177e-016 5.96354e-016 1.59028e-015 -2.98177e-016 3.97569e-016 1.59028e-015 -1.98785e-016 7.95139e-016 1.59028e-015 -0.865644 0.165823 7.03859 -45.339 8.14645 -15.265 0.119572 -0.65635 0.19054 -44.6579 -6.21798 -5.2233 -6.95746e-016 3.97569e-016 3.18055e-015 -4.96962e-016 1.19271e-015 1.59028e-015 -2.98177e-016 7.95139e-016 1.59028e-015 -6.95746e-016 3.97569e-016 3.18055e-015 0.0129413 0.00231642 -8.66574e-005 4.96962e-016 1.98785e-015 -1.59028e-015 -6.95746e-016 3.97569e-016 3.18055e-015 0.0163054 0.00303106 -0.000872627 -4.96962e-016 3.97569e-016 -1.59028e-015 -6.95746e-016 3.97569e-016 3.18055e-015 0.0145696 0.00367771 -0.00326178 -6.95746e-016 -7.95139e-016 3.18055e-015 -6.95746e-016 3.97569e-016 3.18055e-015 -4.96962e-016 1.19271e-015 1.59028e-015 -2.98177e-016 7.95139e-016 1.59028e-015 -3.22663 -30.7832 -4.60422 0.106944 45.252 -1.05214 -3.23355 6.00016 -0.481401 1.60668e-007 -1.64244e-006 3.96284e-007 2.61633 -30.8987 5.30947 -0.0961725 44.7736 0.974566 2.72812 3.06365 0.635787 3.97569e-016 3.18055e-015 7.95139e-016 
-0.0250735 -7.83541 10.4551 -0 -63.0022 -0 0 11.5993 -0 0 23.1986 -0 0 23.1986 -0 -0 -0.000399917 -0 0.000415008 0.274521 -0.173106 -1.10213e-007 -0.000400215 -12.5014 12.4967 4.53666 22.4913 0.00233741 -0.00234857 0.000127148 79.8373 -8.68282 10.2007 -1.49089e-015 0 -9.54166e-015 -3.97569e-016 -3.97569e-016 -6.36111e-015 -3.97569e-016 3.97569e-016 -0 -1.49089e-015 0 -9.54166e-015 -0.0128128 0.00232357 8.57021e-005 6.95746e-016 0 3.18055e-015 -1.49089e-015 0 -9.54166e-015 -0.0160606 0.00299707 0.00085796 -9.93923e-017 1.19271e-015 3.18055e-015 -1.49089e-015 0 -9.54166e-015 -0.0125863 0.00312079 0.00282938 -1.98785e-016 -7.95139e-016 -3.18055e-015 -1.49089e-015 0 -9.54166e-015 -3.97569e-016 -3.97569e-016 -6.36111e-015 -3.97569e-016 3.97569e-016 -0 -0.865644 0.16542 7.03859 -12.6087 4.57986 -17.0652 0.209262 -1.30588 0.370374 -79.7852 -7.37183 -11.4866 -1.10372e-005 -3.12038e-006 4.16052e-008 5.96354e-016 3.97569e-016 -6.36111e-015 1.10372e-005 3.12039e-006 -4.16058e-008 -1.10372e-005 -3.12038e-006 4.16052e-008 0.0129449 0.00231626 -8.5547e-005 -4.96962e-016 -7.95139e-016 6.36111e-015 -1.10372e-005 -3.12038e-006 4.16052e-008 0.0163345 0.00303609 -0.000875076 -5.96354e-016 -7.95139e-016 -0 -1.10372e-005 -3.12038e-006 4.16052e-008 0.0146009 0.00368422 -0.00326274 -7.95139e-016 -3.97569e-016 3.18055e-015 -1.10372e-005 -3.12038e-006 4.16052e-008 5.96354e-016 3.97569e-016 -6.36111e-015 1.10372e-005 3.12039e-006 -4.16058e-008 -13.4555 -54.3557 -11.7897 0.0482744 78.3567 -1.87861 -2.84235 12.7727 -0.902802 -1.25629e-006 1.22408e-005 5.84783e-007 13.2818 -54.3973 13.6641 -0.0483726 77.5474 1.749 1.96409 7.48099 1.1403 -7.95139e-016 7.02282e-010 -0 
-0.0257564 -12.2297 10.4652 -0 -66.9398 -0 0 12.3242 -0 0 24.6486 -0 0 24.6486 -0 -0 -0.000509182 -0 -0.00974232 0.41157 -0.258507 1.9863e-007 -0.000509625 -12.5014 7.91885 3.54756 22.5376 0.00183215 -0.00229282 -0.000117606 84.8926 -8.65027 11.1155 -3.97569e-016 7.95139e-016 3.18055e-015 -7.95139e-016 0 6.36111e-015 -5.96354e-016 3.97569e-016 6.36111e-015 -3.97569e-016 7.95139e-016 3.18055e-015 -0.0127972 0.00232115 8.3812e-005 1.2921e-015 -7.95139e-016 -0 -3.97569e-016 7.95139e-016 3.18055e-015 -0.0160532 0.00299743 0.000857766 -1.09332e-015 0 3.18055e-015 -3.97569e-016 7.95139e-016 3.18055e-015 -0.0126253 0.00313257 0.00283269 -1.39149e-015 -7.95139e-016 -3.18055e-015 -3.97569e-016 7.95139e-016 3.18055e-015 -7.95139e-016 0 6.36111e-015 -5.96354e-016 3.97569e-016 6.36111e-015 -0.865644 0.165311 7.03858 -8.3479 3.65881 -16.8157 0.219885 -1.92741 0.516987 -84.3909 -7.34441 -12.1269 6.95746e-016 -8.9475e-007 -0 6.95746e-016 -1.19271e-015 6.36111e-015 -1.88845e-015 -3.97569e-016 3.18055e-015 6.95746e-016 -8.9475e-007 -0 0.0129649 0.00232055 -8.84814e-005 -1.4132e-007 -2.5653e-008 3.25413e-006 6.95746e-016 -8.9475e-007 -0 0.0163261 0.00303508 -0.00087465 -9.93923e-017 1.19271e-015 -0 6.95746e-016 -8.9475e-007 -0 0.014565 0.00367476 -0.00325756 1.09332e-015 7.95139e-016 -3.18055e-015 6.95746e-016 -8.9475e-007 -0 6.95746e-016 -1.19271e-015 6.36111e-015 -1.88845e-015 -3.97569e-016 3.18055e-015 -15.7511 -57.6099 -13.5825 0.0432531 83.0881 -2.01444 -2.76905 13.7008 -0.981867 -0 0 3.18055e-015 15.7704 -57.6178 15.7404 -0.0373114 82.2417 1.87677 1.84095 8.06543 1.22684 -6.96776e-007 1.37418e-007 4.81109e-007 
